<?xml version="1.0" encoding="utf-8"?>
<!-- Generator: Adobe Illustrator 27.0.1, SVG Export Plug-In . SVG Version: 6.00 Build 0)  -->
<svg version="1.1"
	 id="svg4773" xmlns:sodipodi="http://sodipodi.sourceforge.net/DTD/sodipodi-0.dtd" xmlns:inkscape="http://www.inkscape.org/namespaces/inkscape" xmlns:svg="http://www.w3.org/2000/svg" xmlns:dc="http://purl.org/dc/elements/1.1/" xmlns:rdf="http://www.w3.org/1999/02/22-rdf-syntax-ns#" xmlns:cc="http://creativecommons.org/ns#" inkscape:export-filename="/home/anxhelo/Documents/ura works folder/I2P/horizontal_white.png" inkscape:export-xdpi="96.059998" inkscape:export-ydpi="96.059998"
	 xmlns="http://www.w3.org/2000/svg" xmlns:xlink="http://www.w3.org/1999/xlink" x="0px" y="0px" width="440.2px" height="500px"
	 viewBox="0 0 440.2 500" style="enable-background:new 0 0 440.2 500;" xml:space="preserve">
<style type="text/css">
	.st0{fill:#231F20;}
	.st1{fill:#FFC434;}
	.st2{fill:#60AB60;}
	.st3{fill:#E15647;}
</style>
<sodipodi:namedview  bordercolor="#666666" borderopacity="1.0" fit-margin-bottom="0" fit-margin-left="0" fit-margin-right="0" fit-margin-top="0" id="base" inkscape:current-layer="layer1" inkscape:cx="12.024033" inkscape:cy="87.06691" inkscape:document-units="mm" inkscape:pageopacity="0.0" inkscape:pageshadow="2" inkscape:window-height="740" inkscape:window-maximized="1" inkscape:window-width="1366" inkscape:window-x="0" inkscape:window-y="0" inkscape:zoom="0.98994949" pagecolor="#ffffff" showgrid="false" showguides="false" units="px">
	</sodipodi:namedview>
<g id="layer1" transform="translate(-139.18261,-137.06964)" inkscape:groupmode="layer" inkscape:label="Layer 1">
	<g id="g5527">
		<path id="path4566" inkscape:connector-curvature="0" class="st0" d="M145.5,143.2h49.7v234.2h-49.7V143.2z"/>
		<path id="path4570" inkscape:connector-curvature="0" class="st0" d="M390.9,377.4H225.3v-34.8l59.5-60.1
			c17.6-18,29.1-30.5,34.5-37.5c5.4-7,9.3-13.4,11.7-19.4c2.4-5.9,3.6-12.1,3.6-18.5c0-9.5-2.6-16.6-7.9-21.2c-5.2-4.6-12.2-7-21-7
			c-9.2,0-18.1,2.1-26.7,6.3c-8.6,4.2-17.7,10.2-27.1,18l-27.2-32.2c11.7-9.9,21.3-17,29-21.1c7.7-4.1,16-7.3,25.1-9.5
			c9.1-2.2,19.2-3.3,30.5-3.3c14.8,0,27.9,2.7,39.2,8.1c11.3,5.4,20.1,13,26.4,22.7c6.3,9.7,9.4,20.9,9.4,33.4
			c0,10.9-1.9,21.1-5.8,30.7c-3.8,9.6-9.8,19.4-17.8,29.4c-8,10-22.2,24.4-42.5,42.9L287.7,333v2.3h103.2L390.9,377.4z"/>
		<path id="path4574" inkscape:connector-curvature="0" class="st0" d="M467.2,253.4h16.3c15.3,0,26.7-3,34.3-9.1
			c7.6-6,11.4-14.8,11.4-26.4c0-11.6-3.2-20.2-9.5-25.8c-6.4-5.5-16.3-8.3-29.9-8.3h-22.6L467.2,253.4z M579.4,216.2
			c0,25.2-7.9,44.5-23.6,57.8c-15.8,13.4-38.2,20-67.2,20h-21.3v83.3h-49.7V143.2h74.8c28.4,0,50,6.1,64.8,18.3
			C572,173.8,579.4,192,579.4,216.2"/>
		<path id="path4578" inkscape:connector-curvature="0" class="st1" d="M233.9,589.7c0-26.2-21.2-47.4-47.4-47.4
			c-26.2,0-47.4,21.2-47.4,47.4c0,26.2,21.2,47.4,47.4,47.4C212.7,637.1,233.9,615.9,233.9,589.7"/>
		<path id="path4582" inkscape:connector-curvature="0" class="st2" d="M233.9,477.1c0-26.2-21.2-47.4-47.4-47.4
			c-26.2,0-47.4,21.2-47.4,47.4s21.2,47.4,47.4,47.4C212.7,524.5,233.9,503.3,233.9,477.1"/>
		<path id="path4586" inkscape:connector-curvature="0" class="st3" d="M346.5,589.7c0-26.2-21.2-47.4-47.4-47.4
			c-26.2,0-47.4,21.2-47.4,47.4c0,26.2,21.2,47.4,47.4,47.4C325.3,637.1,346.5,615.9,346.5,589.7"/>
		<path id="path4590" inkscape:connector-curvature="0" class="st1" d="M346.5,477.1c0-26.2-21.2-47.4-47.4-47.4
			c-26.2,0-47.4,21.2-47.4,47.4s21.2,47.4,47.4,47.4C325.3,524.5,346.5,503.3,346.5,477.1"/>
		<path id="path4594" inkscape:connector-curvature="0" class="st1" d="M459,589.7c0-26.2-21.2-47.4-47.4-47.4
			c-26.2,0-47.4,21.2-47.4,47.4c0,26.2,21.2,47.4,47.4,47.4C437.8,637.1,459,615.9,459,589.7"/>
		<path id="path4598" inkscape:connector-curvature="0" class="st2" d="M459,477.1c0-26.2-21.2-47.4-47.4-47.4
			c-26.2,0-47.4,21.2-47.4,47.4s21.2,47.4,47.4,47.4C437.8,524.5,459,503.3,459,477.1"/>
		<path id="path4602" inkscape:connector-curvature="0" class="st2" d="M571.6,589.7c0-26.2-21.2-47.4-47.4-47.4
			c-26.2,0-47.4,21.2-47.4,47.4c0,26.2,21.2,47.4,47.4,47.4C550.4,637.1,571.6,615.9,571.6,589.7"/>
		<path id="path4606" inkscape:connector-curvature="0" class="st3" d="M571.6,477.1c0-26.2-21.2-47.4-47.4-47.4
			c-26.2,0-47.4,21.2-47.4,47.4s21.2,47.4,47.4,47.4C550.4,524.5,571.6,503.3,571.6,477.1"/>
	</g>
</g>
</svg>
